<svg xmlns="http://www.w3.org/2000/svg" viewBox="0 0 666.66669 666.66669" height="666.667" width="666.667"><defs><clipPath id="a"><path d="M59.934 185h393V31h-393z"/></clipPath><clipPath id="b"><path d="M76.934 326h362V172h-362z"/></clipPath><clipPath id="c"><path d="M43.934 473h415V322h-415z"/></clipPath></defs><path d="M576.43 177.41l90.546 30.618-57.362-78.618z" fill="#d19890"/><path d="M541.402 279.728l68.215-150.32-35.03-5.53-84.8 88.56z" fill="#dda89f"/><path d="M541.402 279.728l-75.58-153.932-77.43-25.81-18.473 93.998 28.614 90.352z" fill="#e0b1a9"/><path d="M73.15 275.117l-35.487 31.34 1.38 38.715 11.065 11.064 2.762-38.714 26.27-16.594z" fill="#d19890"/><path d="M73.15 275.117l161.31-99.548 45.16 129.966-163.148 62.682z" fill="#dda89f"/><path d="M169.014 555.334l-86.65-64.52-9.215-215.695 58.993 58.993L156.11 380.2l53.46 35.028z" fill="#e0b1a9"/><path d="M246.444 452.098l-77.432 103.236 7.377-154.857z" fill="#d19890"/><path d="M398.535 284.336l11.982 278.372h-75.59L156.113 380.2l101.395-121.67 134.57 27.65M388.39 99.984l-164.068 27.654 174.21 156.697z" fill="#dda89f"/><path d="M132.143 334.112l108.766-55.304-84.8 101.392z" fill="#d19890"/><path d="M169.014 555.334l-82.037 1.84-4.612-66.36zM39.045 345.172L3.558 372.367l46.55-16.132z" fill="#dda89f"/><path d="M243.488 293.268l2.584 62.567 154.29-29.507-.58-13.574z" fill="#c98f89"/><path d="M224.32 127.638l222.39 182.175-217.18 17.583z" fill="#eabcb2"/></svg>